<svg fill="none" height="24" viewBox="0 0 24 24" width="24" xmlns="http://www.w3.org/2000/svg"><path d="m18 10-4-4m-11.50003 15.5 3.38437-.376c.41349-.046.62023-.069.81348-.1315.17144-.0555.3346-.1339.48504-.2331.16956-.1119.31665-.2589.61084-.5531l13.2063-13.2063c1.1046-1.10457 1.1046-2.89543 0-4s-2.8954-1.10457-4 0l-13.2063 13.2063c-.29418.2942-.44128.4412-.55309.6108-.09921.1505-.17763.3136-.23313.4851-.06255.1932-.08553.3999-.13147.8134z" stroke="#171717" stroke-linecap="round" stroke-linejoin="round" stroke-width="2"/></svg>