<svg width="19" height="20" viewBox="0 0 19 20" fill="none" xmlns="http://www.w3.org/2000/svg">
<path d="M6.64706 1V18.4545M5.51765 1H13.4235C15.0049 1 15.7955 1 16.3995 1.31707C16.9308 1.59598 17.3627 2.04101 17.6334 2.58839C17.9412 3.21068 17.9412 4.0253 17.9412 5.65455V13.8C17.9412 15.4293 17.9412 16.2438 17.6334 16.8662C17.3627 17.4136 16.9308 17.8586 16.3995 18.1375C15.7955 18.4545 15.0049 18.4545 13.4235 18.4545H5.51765C3.93632 18.4545 3.14566 18.4545 2.54168 18.1375C2.01039 17.8586 1.57845 17.4136 1.30775 16.8662C1 16.2438 1 15.4293 1 13.8V5.65455C1 4.0253 1 3.21068 1.30775 2.58839C1.57845 2.04101 2.01039 1.59598 2.54168 1.31707C3.14566 1 3.93632 1 5.51765 1Z" stroke="#FAFAFA" stroke-width="2" stroke-linecap="round" stroke-linejoin="round"/>
</svg>