<svg width="201" height="201" viewBox="0 0 201 201" fill="none" xmlns="http://www.w3.org/2000/svg">
<path d="M200 100.5C200 155.452 155.452 200 100.5 200C45.5477 200 1 155.452 1 100.5C1 45.5477 45.5477 1 100.5 1C155.452 1 200 45.5477 200 100.5Z" fill="#D9D9D9"/>
<path d="M199 100.5C199 46.1 154.9 2 100.5 2C46.1 2 2 46.1 2 100.5C2 154.9 46.1 199 100.5 199C154.9 199 199 154.9 199 100.5ZM101.451 113.063C115.109 113.064 127.251 119.659 134.975 129.882C135.771 130.935 136.428 131.804 136.872 132.596C137.278 133.321 137.533 134.029 137.579 134.83L137.586 135.18C137.572 135.925 137.337 136.706 137 137.384C136.663 138.061 136.181 138.719 135.595 139.179C134.826 139.782 133.944 140.046 132.909 140.17C131.901 140.291 130.643 140.289 129.084 140.289H73.8174C72.2583 140.289 71.0001 140.291 69.9922 140.17C68.9575 140.046 68.0745 139.782 67.3057 139.179C66.7194 138.719 66.2375 138.06 65.9004 137.383C65.5633 136.706 65.3291 135.925 65.3154 135.18C65.2981 134.231 65.5641 133.424 66.0283 132.596C66.4721 131.803 67.1308 130.935 67.9268 129.882C75.6507 119.659 87.7924 113.063 101.451 113.063ZM101.451 115.063C88.4544 115.063 76.89 121.337 69.5225 131.088C68.6944 132.184 68.135 132.928 67.7734 133.573C67.4323 134.182 67.3062 134.64 67.3154 135.144C67.3224 135.52 67.4505 136.008 67.6914 136.492C67.9324 136.976 68.2445 137.373 68.541 137.605C68.915 137.899 69.396 138.084 70.2305 138.184C71.0918 138.287 72.2095 138.289 73.8174 138.289H129.084C130.692 138.289 131.81 138.287 132.671 138.184C133.505 138.084 133.986 137.899 134.36 137.605C134.657 137.373 134.969 136.976 135.21 136.492C135.451 136.008 135.579 135.52 135.586 135.144C135.595 134.64 135.469 134.182 135.128 133.573C134.766 132.928 134.207 132.184 133.379 131.088C126.011 121.337 114.447 115.064 101.451 115.063ZM119.37 82.5312C119.37 72.6352 111.347 64.6126 101.451 64.6123C91.5548 64.6123 83.5315 72.6351 83.5312 82.5312C83.5312 92.4276 91.5546 100.451 101.451 100.451C111.347 100.451 119.37 92.4275 119.37 82.5312ZM201 100.5C201 156.005 156.005 201 100.5 201C44.9954 201 0 156.005 0 100.5C0 44.9954 44.9954 0 100.5 0C156.005 0 201 44.9954 201 100.5ZM121.37 82.5312C121.37 93.5321 112.452 102.451 101.451 102.451C90.4501 102.451 81.5312 93.5322 81.5312 82.5312C81.5315 71.5305 90.4502 62.6123 101.451 62.6123C112.452 62.6126 121.37 71.5307 121.37 82.5312Z" fill="#979797"/>
</svg>